HIERARCHY
ROOT Hips
{
	OFFSET -3.958830 18.904000 13.208200
	CHANNELS 6 Xposition Yposition Zposition Zrotation Yrotation Xrotation 
	JOINT LHipJoint
	{
		OFFSET 0.000000 0.000000 0.000000
		CHANNELS 3 Zrotation Yrotation Xrotation
		JOINT LeftUpLeg
		{
			OFFSET 1.800000 -1.400000 0.085000
			CHANNELS 3 Zrotation Yrotation Xrotation
			JOINT LeftLeg
			{
				OFFSET 2.215000 -6.000000 0.000000
				CHANNELS 3 Zrotation Yrotation Xrotation
				JOINT LeftFoot
				{
					OFFSET 2.500000 -6.900000 0.000000
					CHANNELS 3 Zrotation Yrotation Xrotation
					JOINT LeftToeBase
					{
						OFFSET 0.200000 -0.500000 1.950000
						CHANNELS 3 Zrotation Yrotation Xrotation
						End Site
						{
							OFFSET 0.000000 0.000000 0.000000
						}
					}
				}
			}
		}
	}
	JOINT RHipJoint
	{
		OFFSET 0.000000 0.000000 0.000000
		CHANNELS 3 Zrotation Yrotation Xrotation
		JOINT RightUpLeg
		{
			OFFSET -1.800000 -1.400000 0.085000
			CHANNELS 3 Zrotation Yrotation Xrotation
			JOINT RightLeg
			{
				OFFSET -2.215000 -6.000000 0.000000
				CHANNELS 3 Zrotation Yrotation Xrotation
				JOINT RightFoot
				{
					OFFSET -2.500000 -6.900000 0.000000
					CHANNELS 3 Zrotation Yrotation Xrotation
					JOINT RightToeBase
					{
						OFFSET -0.200000 -0.500000 1.950000
						CHANNELS 3 Zrotation Yrotation Xrotation
						End Site
						{
							OFFSET 0.000000 0.000000 0.000000
						}
					}
				}
			}
		}
	}
	JOINT LowerBack
	{
		OFFSET 0.000000 0.000000 0.000000
		CHANNELS 3 Zrotation Yrotation Xrotation
		JOINT Spine
		{
			OFFSET -0.087000 1.940000 -0.288900
			CHANNELS 3 Zrotation Yrotation Xrotation
			JOINT Spine1
			{
				OFFSET 0.000000 1.950000 0.060000
				CHANNELS 3 Zrotation Yrotation Xrotation
				JOINT Neck
				{
					OFFSET 0.000000 0.000000 0.000000
					CHANNELS 3 Zrotation Yrotation Xrotation
					JOINT Neck1
					{
						OFFSET 0.000000 1.600000 0.340000
						CHANNELS 3 Zrotation Yrotation Xrotation
						JOINT Head
						{
							OFFSET 0.000000 1.667000 -0.240000
							CHANNELS 3 Zrotation Yrotation Xrotation
							End Site
							{
								OFFSET 0.000000 0.000000 0.000000
							}
						}
					}
				}
				JOINT LeftShoulder
				{
					OFFSET 0.000000 0.000000 0.000000
					CHANNELS 3 Zrotation Yrotation Xrotation
					JOINT LeftArm
					{
						OFFSET 2.700000 1.550000 -0.730000
						CHANNELS 3 Zrotation Yrotation Xrotation
						JOINT LeftForeArm
						{
							OFFSET 5.450000 0.000000 0.000000
							CHANNELS 3 Zrotation Yrotation Xrotation
							JOINT LeftHand
							{
								OFFSET 3.450000 0.000000 0.000000
								CHANNELS 3 Zrotation Yrotation Xrotation
								JOINT LeftHandIndex1
								{
									OFFSET 0.750000 0.000000 0.000000
									CHANNELS 3 Zrotation Yrotation Xrotation
									End Site
									{
										OFFSET 0.000000 0.000000 0.000000
									}
								}
							}
						}
					}
				}
				JOINT RightShoulder
				{
					OFFSET 0.000000 0.000000 0.000000
					CHANNELS 3 Zrotation Yrotation Xrotation
					JOINT RightArm
					{
						OFFSET -2.700000 1.550000 -0.730000
						CHANNELS 3 Zrotation Yrotation Xrotation
						JOINT RightForeArm
						{
							OFFSET -5.450000 0.000000 0.000000
							CHANNELS 3 Zrotation Yrotation Xrotation
							JOINT RightHand
							{
								OFFSET -3.450000 0.000000 0.000000
								CHANNELS 3 Zrotation Yrotation Xrotation
								JOINT RightHandIndex1
								{
									OFFSET -0.750000 0.000000 0.000000
									CHANNELS 3 Zrotation Yrotation Xrotation
									End Site
									{
										OFFSET 0.000000 0.000000 0.000000
									}
								}
							}
						}
					}
				}
			}
		}
	}
}
MOTION
Frames: 7
Frame Time: 0.016667
0.248310 16.382680 -0.014820 -4.500903 9.578133 0.080610 -14.930996 12.939208 2.899409 0.844651 -1.629762 -12.872028 -3.289010 4.372350 13.120293 -0.244243 3.001727 3.514127 0.335410 0.190230 0.317880 18.351227 -12.348124 2.536798 -3.222242 1.018642 -23.390575 -18.298758 0.714034 22.220263 -0.136081 -3.406911 3.019924 0.100630 -0.011570 0.203690 -4.241113 1.473872 -7.201163 12.114528 -2.192816 9.058614 -6.853241 -1.345157 3.566146 6.035849 10.866381 -12.575692 21.265359 -22.738413 22.393320 0.422550 -16.320630 -4.670750 -22.325065 -13.702949 5.151044 -38.455654 -3.541848 -4.421134 -6.852255 -17.496759 0.040437 -3.639584 3.226900 0.093020 0.019010 0.035820 0.082780 8.573996 8.862871 9.882059 48.267889 -1.624734 -5.418646 4.010205 20.552682 -0.861792 2.494757 -1.574515 0.068210 -0.097160 -0.178970 0.006830 
0.251360 16.374580 -0.011490 -4.363093 8.806764 0.486325 -14.921941 12.872510 2.900141 0.776545 -1.681071 -12.989098 -3.637195 4.425943 13.014120 -0.255710 3.029715 3.515394 0.330270 0.179350 0.314710 18.367720 -12.365289 2.519350 -3.743222 0.929556 -23.124079 -17.616284 0.493345 20.683367 -0.100879 -3.269886 3.071151 0.105840 0.008850 0.207340 -4.254489 1.613221 -7.156573 11.910965 -1.814943 8.496141 -6.736827 -1.099155 3.629896 6.061306 10.854969 -12.467304 21.388496 -22.982759 21.679770 0.064260 -16.371670 -4.346530 -21.955073 -13.355986 4.976693 -39.017853 -3.826973 -4.352967 -7.491033 -17.621512 0.107079 -3.661219 3.221259 0.086690 0.035830 0.021780 0.087530 8.180199 8.593633 9.857650 49.432841 -1.611425 -5.519350 3.296917 20.428004 -0.998370 2.484715 -1.586448 0.054880 -0.088870 -0.174680 0.006660 
0.255940 16.365760 -0.011140 -4.140773 7.497482 1.108739 -14.920574 12.783145 2.905038 0.576192 -1.749007 -13.170896 -4.007728 4.451374 12.753764 -0.268782 3.035404 3.515707 0.335870 0.191750 0.320810 18.380171 -12.373404 2.497821 -4.581911 0.810733 -22.785745 -16.271440 0.118725 18.584984 -0.055802 -3.086367 3.135329 0.124400 0.022290 0.219200 -4.237453 1.781896 -7.088631 11.328309 -1.302641 7.773052 -6.497260 -0.837796 3.649653 6.282081 10.998630 -12.300568 21.989159 -23.248377 20.620560 -0.821900 -15.953500 -3.985570 -21.981804 -12.889998 4.754395 -39.194767 -4.002392 -4.181571 -9.056747 -17.614075 0.299314 -3.695017 3.231124 0.064040 0.063080 0.011090 0.087470 7.859592 8.176376 9.711704 51.181215 -1.333692 -5.536714 2.217065 20.209625 -1.215268 2.470812 -1.610513 0.054120 -0.088620 -0.173010 0.005750 
0.260590 16.358580 -0.009350 -4.086141 5.932933 1.740021 -14.918355 12.713304 2.912247 0.618411 -1.814552 -13.355945 -4.569301 4.520923 12.395210 -0.281589 3.063913 3.510319 0.337790 0.197440 0.327990 18.390412 -12.360100 2.481903 -5.404269 0.740559 -22.442505 -14.489164 -0.306717 16.969122 -0.014896 -2.944076 3.187202 0.140320 0.038030 0.228620 -4.214859 1.883310 -7.029920 10.924449 -0.893453 7.088925 -6.130721 -0.658103 3.526048 6.446222 11.077706 -12.054816 22.324822 -23.262858 19.765687 -1.754040 -15.341490 -3.580100 -22.476767 -12.426890 4.568066 -39.363273 -3.887286 -4.068264 -10.745784 -17.626819 0.498779 -3.726572 3.240035 0.044320 0.091860 -0.001800 0.086320 8.123133 7.725907 9.433805 52.236862 -1.243347 -5.629922 1.702089 20.272691 -1.358503 2.456454 -1.627541 0.048130 -0.085630 -0.170080 0.001570 
0.265390 16.353520 -0.007200 -4.194361 4.000886 2.270685 -14.907566 12.666752 2.916833 0.831143 -1.873329 -13.546123 -5.154957 4.639964 12.263977 -0.280462 3.110695 3.495216 0.332410 0.196970 0.331370 18.404113 -12.343995 2.479065 -5.988324 0.733136 -22.165290 -12.656989 -0.701087 16.072110 0.016028 -2.855788 3.221915 0.146690 0.049660 0.235200 -4.204352 1.946324 -6.988078 10.785559 -0.633809 6.555326 -5.729413 -0.571344 3.307109 6.525679 11.062502 -11.775679 22.336372 -22.894226 19.433590 -2.561710 -14.525890 -3.138480 -22.965186 -11.888545 4.439515 -40.046039 -3.568044 -4.075281 -12.151473 -17.604306 0.644526 -3.753660 3.245910 0.025630 0.116090 -0.011180 0.082690 8.543536 7.216848 9.034616 52.898706 -1.003476 -5.697359 1.824464 20.527860 -1.405850 2.449855 -1.634742 0.045260 -0.085280 -0.166110 -0.001870 
0.264500 16.355550 -0.006820 -4.416083 1.496883 2.785167 -14.890337 12.633523 2.920749 1.188205 -1.926881 -13.750665 -5.774249 4.787738 12.203268 -0.267276 3.173045 3.481921 0.319700 0.180640 0.328660 18.422175 -12.322005 2.491877 -6.207293 0.854906 -22.211097 -10.902928 -1.039770 16.082864 0.041224 -2.812348 3.240220 0.140150 0.068910 0.241490 -4.199397 1.986503 -6.955604 10.730815 -0.276162 6.192695 -5.096186 -0.341642 2.747779 6.395813 10.963217 -11.311256 22.028116 -22.331044 19.501542 -2.980370 -13.861530 -2.515060 -23.880461 -11.080002 4.191035 -40.829772 -3.204466 -4.063397 -13.244545 -17.222896 0.720065 -3.775845 3.246169 0.012420 0.136320 -0.022380 0.084210 9.826658 6.471567 8.418362 52.840941 -1.059660 -5.890883 2.160062 21.007613 -1.398493 2.454458 -1.633384 0.039550 -0.085530 -0.163710 -0.000610 
0.259740 16.358670 -0.003990 -4.612358 -1.294016 3.344832 -14.881149 12.616410 2.931645 1.487009 -1.989211 -14.037185 -6.325764 4.932486 12.229825 -0.263684 3.232445 3.465331 0.305880 0.163340 0.326150 18.432146 -12.293068 2.501452 -6.249803 1.036832 -22.485926 -9.258477 -1.377544 16.942010 0.059145 -2.819403 3.236396 0.135070 0.081950 0.242830 -4.169200 1.982453 -6.920260 10.514272 0.150084 5.938555 -4.235480 -0.027086 1.885365 6.201285 10.842342 -10.704362 21.628547 -21.782936 19.577945 -3.419790 -13.165980 -2.068970 -25.072214 -9.944185 3.758046 -41.670945 -2.816532 -3.973989 -14.116693 -16.135944 0.687908 -3.799099 3.233801 0.007660 0.151660 -0.031750 0.082380 11.531749 5.434648 7.672351 52.481366 -1.493711 -6.263270 2.624853 21.659873 -1.363165 2.456319 -1.625112 0.028590 -0.084130 -0.159070 -0.004750 
